<?xml version="1.0" encoding="UTF-8" standalone="no"?>
<!DOCTYPE svg PUBLIC "-//W3C//DTD SVG 1.1//EN" "http://www.w3.org/Graphics/SVG/1.1/DTD/svg11.dtd">
<svg width="100%" height="100%" viewBox="0 0 675 675" version="1.1" xmlns="http://www.w3.org/2000/svg" xmlns:xlink="http://www.w3.org/1999/xlink" xml:space="preserve" xmlns:serif="http://www.serif.com/" style="fill-rule:evenodd;clip-rule:evenodd;stroke-linejoin:round;stroke-miterlimit:2;">
    <g id="_-fdfdfeff" serif:id="#fdfdfeff">
        <path d="M27.98,638.44C30.31,637.02 32.84,635.87 35.66,636.11C33.18,637.12 30.58,637.79 27.98,638.44Z" style="fill:rgb(253,253,254);fill-rule:nonzero;"/>
    </g>
    <g id="_-36363aff" serif:id="#36363aff">
        <path d="M181.69,75.72C219.37,36.96 271.87,12.7 325.96,10.21C334.31,9.43 342.74,9.35 351.08,10.27C370.48,10.97 389.62,15.11 408.06,21.02C413.88,23.11 419.85,24.96 425.23,28.08C398.72,28.59 372.19,27.85 345.68,28.42C319.17,72.26 292.11,115.77 265.37,159.48C258.96,169.72 252.85,180.14 246.32,190.29C254.39,190.95 262.53,190.5 270.56,191.7C287.84,192.58 305.07,194.39 322.13,197.36C357.45,202.95 391.79,216.17 420.89,237.12C442.08,252.94 460.36,273.78 469.45,298.92C477.49,321.35 476.56,347.53 464.15,368.23C446.1,399.53 411.54,419.2 376.06,422.93C369.51,423.76 363,422.24 356.82,420.18C347.49,417.05 337.78,411.6 333.96,402C331.6,397.33 331.66,392.05 332.19,386.98C333.45,375.68 332.8,364.28 333.93,352.97C334.79,346.34 334.43,339.64 334.74,332.98C334.8,323.61 336.58,314.3 336.03,304.91C336.01,303.09 334.5,301.89 333.46,300.6C326.83,293.27 320.4,285.76 313.73,278.48C313.07,289.97 313.53,301.5 312.75,313C311.28,331.64 312.42,350.37 310.93,369.01C310.27,376.32 310.51,383.66 310.35,390.99C310.36,395.3 309.92,399.75 311.35,403.92C312.35,407.55 314.23,410.83 316,414.14C313.73,413.45 311.52,412.58 309.46,411.41C298.8,405.56 288.62,398.65 277.06,394.63C270.68,392.22 263.73,392.54 257.04,392.62C246.93,392.69 236.6,397.45 231.02,406.06C228.48,409.79 229.19,414.52 229.56,418.74C228.79,418.45 227.26,417.86 226.49,417.56C200.47,402 177.77,380.97 160.06,356.37C131.19,368.82 102.37,381.42 73.17,393.12C64.07,396.43 55.33,400.72 46.09,403.66C54.96,398.41 64.57,394.6 73.72,389.89C93.93,380.22 114.22,370.73 134.71,361.67C142.01,358.2 149.37,354.79 156.91,351.89C154.54,348.04 151.91,344.34 149.67,340.41C146.23,342.6 142.33,343.87 138.62,345.51C113.56,356.22 88.53,367 63.14,376.88C57.47,379.14 52,381.99 45.97,383.2C79.32,366.67 113.09,351 147.11,335.92C145.01,331.68 142.21,327.72 140.94,323.11C144.97,322.07 148.71,320.23 152.46,318.49C198.35,298.48 244,277.87 289.01,255.97C256.84,268.84 224.88,282.24 193.12,296.08C175.93,303.87 158.35,310.87 141.47,319.31C140.29,319.07 139.08,318.86 138.11,318.09C136.5,314.8 135.4,311.28 133.61,308.07C134.67,306.26 136.46,305.17 138.38,304.45C181.18,285.95 223.76,266.95 265.85,246.9C274.33,243.19 282.41,238.64 290.96,235.1C279.94,239.11 269.21,243.9 258.36,248.34C232.67,258.66 207.29,269.75 181.93,280.83C165.61,287.74 149.62,295.42 133.3,302.31C133.29,304.08 133.27,305.86 133.24,307.64C115.4,314.86 97.82,322.72 79.93,329.84C71.13,333.36 62.34,336.91 53.55,340.5C51.17,341.53 48.65,342.19 46.1,342.66C58.17,336.99 70.16,331.15 82.13,325.29C98.75,317.8 115.03,309.53 131.89,302.59C130.58,298.15 128.39,293.8 128.13,289.18C128.56,288.87 129.41,288.26 129.84,287.95C180.35,266.28 230.49,243.73 280.07,220C282.99,218.72 285.8,217.2 288.38,215.33C288.97,215.58 290.13,216.07 290.71,216.32C290.56,215.77 290.25,214.66 290.1,214.1C283.35,218.67 275.37,220.74 268.04,224.14C220.78,243.43 173.92,263.76 127.5,284.99C127.38,286.66 127.28,288.33 127.11,289.99C106.3,298.57 85.73,307.71 64.69,315.71C58.76,318.14 52.87,320.71 46.82,322.86C51.49,319.12 57.26,317.25 62.57,314.66C83.5,304.22 104.78,294.51 126.12,284.95C123.3,271.4 120.29,257.78 119.91,243.88C118.98,235.01 118.78,226.04 119.71,217.16C121.89,164.51 144.82,113.24 181.69,75.72M184.29,320.14C172.21,325.8 159.55,330.31 147.85,336.71C148.78,337.66 149.71,338.61 150.64,339.56C183.13,325.21 215.61,310.81 247.81,295.82C262.16,288.89 276.61,282.18 290.98,275.3C255.22,289.76 219.6,304.59 184.29,320.14M290.78,294.83C289.35,296.28 287.45,297.05 285.59,297.77C270.97,303.31 256.71,309.76 242.15,315.47C214,327.18 186.16,339.62 158.14,351.65C158.68,353 159.23,354.34 159.79,355.69C184.43,344.78 209.09,333.89 233.55,322.57C252.4,313.97 271.01,304.83 289.81,296.12C290.36,295.89 290.58,295.34 290.78,294.83Z" style="fill:rgb(54,54,58);fill-rule:nonzero;"/>
        <path d="M137.99,319.51C139.62,320.63 141.29,321.89 141.07,324.15C118.85,334 96.41,343.34 73.9,352.49C64.83,355.77 56.2,360.18 46.92,362.87C51.88,359.59 57.49,357.56 62.77,354.89C76.01,348.25 89.46,342.07 102.85,335.74C114.54,330.29 126.45,325.28 137.99,319.51Z" style="fill:rgb(54,54,58);fill-rule:nonzero;"/>
        <path d="M170.79,431.2C174.92,431.05 179.05,431.07 183.18,431.15C183.06,460.44 183.26,489.74 183.07,519.03C183.23,524.29 180.14,529.09 175.75,531.78C169.95,535.58 162.73,535.66 156.04,535.45C149.41,535.34 142.44,533.14 137.91,528.09C135.45,525.35 134.88,521.55 134.94,518.01C135.15,506.02 135.11,494.02 134.96,482.03C134.83,477.08 137.07,472.15 140.95,469.07C144.91,466.11 149.95,465.39 154.43,463.54C158.27,461.98 162.27,460.8 166.09,459.17C169.3,457.95 170.91,454.32 170.91,451.06C170.9,444.44 171.24,437.81 170.79,431.2M152.23,477.2C148.83,479.2 147.01,483.09 147.1,486.97C147.06,495.66 147.08,504.35 147.1,513.05C147.09,517.01 148.71,521.45 152.5,523.25C157.35,524.85 162.89,524.58 167.49,522.3C170.07,520.5 171.1,517.12 171,514.09C171.03,499.29 171.09,484.5 170.88,469.71C165.19,473.37 158.07,473.83 152.23,477.2Z" style="fill:rgb(54,54,58);fill-rule:nonzero;"/>
        <path d="M189.17,431.38C193.6,431.52 198.02,431.4 202.45,431.45C202.39,436.45 202.48,441.46 202.48,446.46C198.05,446.56 193.63,446.53 189.2,446.5C189.02,441.46 189.04,436.41 189.17,431.38Z" style="fill:rgb(54,54,58);fill-rule:nonzero;"/>
        <path d="M393.16,431.42C397.59,431.48 402.02,431.41 406.45,431.45C406.39,436.47 406.52,441.49 406.43,446.51C402.01,446.54 397.59,446.54 393.18,446.51C393.02,441.48 393,436.44 393.16,431.42Z" style="fill:rgb(54,54,58);fill-rule:nonzero;"/>
        <path d="M78.52,433.54C93.73,433.49 108.95,433.36 124.17,433.58C122.09,439.71 119.29,445.57 117.27,451.72C105.5,452.04 93.72,451.82 81.95,451.82C80.61,451.86 79.31,452.2 78,452.45C77.21,455.62 76.04,458.68 74.88,461.73C86.18,462.49 97.88,464.21 107.67,470.29C114.31,474.47 120.25,480.43 122.63,488.08C126.72,500.19 122.24,514.14 113,522.66C104.53,530.67 92.44,533.87 81.01,533.23C74.57,532.63 67.32,531.4 62.97,526.12C59.87,522.33 61.68,516.01 66.26,514.35C71.36,512.43 76.62,515.41 80.71,518.28C86,521.62 91.25,526.47 97.97,525.82C105.74,526.12 111.86,518.35 111.48,510.93C111.62,502 105.54,494.17 97.93,490.09C86.9,483.55 73.65,482.16 61.07,482.82C66.66,466.32 72.6,449.93 78.52,433.54Z" style="fill:rgb(54,54,58);fill-rule:nonzero;"/>
        <path d="M243.17,462.16C248.17,458.94 254.25,458.6 260.01,458.26C267.63,458.52 276.22,459.25 281.59,465.41C286.41,470.36 284.91,477.79 284.93,484.03C285.13,490.49 280.02,496.21 274.08,498.1C267.88,500.43 261.14,498.58 254.77,499.75C250.74,500.77 248.03,504.79 248.33,508.9C248.47,513.38 247.33,519.35 251.82,522.18C256.44,524.51 262.12,524.32 267.03,523.08C270.94,522.08 272,517.97 272.46,514.48C276.59,514.58 280.73,514.55 284.86,514.37C285.82,519.95 284.59,526.25 280.01,529.96C273.03,535.52 263.56,535.82 255.04,535.29C249.63,534.53 243.78,533.15 239.98,528.92C237.32,526.3 235.41,522.74 235.58,518.93C235.58,504.29 235.57,489.64 235.55,475C235.42,469.7 238.45,464.58 243.17,462.16M254.39,470.49C251.71,471.21 249.03,473.18 248.64,476.1C248,480.89 248.49,485.75 248.17,490.56C254.18,486.47 261.84,489.67 268.29,487.29C273.03,484.58 273.29,477.53 270.87,473.2C266.58,469.03 259.83,468.77 254.39,470.49Z" style="fill:rgb(54,54,58);fill-rule:nonzero;"/>
        <path d="M298.92,459.86C305.48,458.18 312.42,457.79 319.09,459.1C324.77,459.76 330.22,462.99 333.01,468.07C335.01,471.56 334.54,475.76 334.67,479.63C330.75,479.8 326.83,479.74 322.91,479.76C322.32,476.68 321.81,472.9 318.65,471.37C313.65,469.06 307.28,468.49 302.48,471.59C299.3,473.54 298.87,477.73 298.63,481.1C298.57,491.39 298.57,501.68 298.66,511.97C298.93,515.43 298.88,519.69 301.9,522.03C304.36,524.31 307.95,523.78 311.03,523.89C313.76,523.67 316.95,524.06 319.14,522.05C321.75,519.93 322.12,516.38 322.9,513.34C326.77,513.33 330.65,513.24 334.52,513.39C334.92,519.14 334.79,525.88 329.93,529.87C321.75,536.07 310.72,536.38 301.02,534.54C293.61,533.04 286.01,527.21 286.36,518.97C286.72,503.97 286.25,488.97 286.5,473.97C286.43,466.92 292.66,461.76 298.92,459.86Z" style="fill:rgb(54,54,58);fill-rule:nonzero;"/>
        <path d="M350.85,460.06C358.74,457.78 367.27,457.72 375.19,459.92C379.85,461.25 383.81,464.7 386.02,468.98C387.35,472.31 387.08,476.01 387.35,479.52C383.4,479.83 379.44,479.73 375.49,479.78C374.97,476.96 374.36,473.9 372.02,471.97C367.55,469.26 361.84,468.72 356.93,470.52C352.47,471.68 351.22,476.96 351.14,480.99C351.15,491.66 351.03,502.35 351.19,513.03C351.28,517.07 352.48,522.31 357.02,523.43C361.26,524 365.8,524.35 369.93,522.97C373.94,521.58 374.61,516.88 375.45,513.3C379.29,513.32 383.14,513.29 386.99,513.27C387.27,518.47 387.57,524.58 383.61,528.6C378.67,533.32 371.72,535.6 364.94,535.44C357.02,535.85 348.24,534.45 342.44,528.57C339.14,525.27 338.89,520.36 338.96,515.98C339.1,501.96 338.86,487.95 339.1,473.94C338.98,467.17 344.83,461.96 350.85,460.06Z" style="fill:rgb(54,54,58);fill-rule:nonzero;"/>
        <path d="M429.53,458.7C438.5,457.76 449.03,458.27 455.62,465.31C459.29,468.45 459,473.64 459.1,478.02C459.03,492.01 459.22,506.01 459.04,520C459.14,525.18 455.53,529.71 451.11,532.04C445.1,535.56 437.88,535.68 431.12,535.37C424.65,535.04 417.77,532.79 413.61,527.57C410.71,524.05 411.01,519.23 410.95,514.95C411.19,500.93 410.85,486.89 411.15,472.87C411.75,463.96 421.51,459.02 429.53,458.7M428.38,470.62C424.28,471.56 422.9,476.32 422.99,480.03C422.96,491.72 422.88,503.41 423.03,515.1C422.96,519.4 426.46,523.8 430.94,523.77C435.22,523.85 440.04,524.45 443.72,521.74C446.63,519.92 446.97,516.07 446.97,512.97C446.93,501.63 447.07,490.3 446.88,478.96C447.13,475.58 445.1,472.15 441.87,471C437.68,468.9 432.74,469.3 428.38,470.62Z" style="fill:rgb(54,54,58);fill-rule:nonzero;"/>
        <path d="M217.34,460.55C224.1,458.06 231.43,459.34 238.46,458.82C238.1,462.43 237.16,465.94 236.23,469.44C231.52,470.46 226.37,469.63 221.98,471.87C218.95,473.39 218.35,476.93 218.41,480C218.48,498.02 218.37,516.04 218.47,534.07C214.12,534.1 209.76,534 205.4,534.2C205.22,516.79 205.41,499.39 205.35,481.98C205.42,478.33 205.15,474.62 206.02,471.05C207.67,465.86 212.37,462.31 217.34,460.55Z" style="fill:rgb(54,54,58);fill-rule:nonzero;"/>
        <path d="M473.12,461.24C478.64,458.31 485.01,459.13 491.02,459.03C497.34,458.76 503.89,461.06 508.33,465.63C511.26,468.67 511.53,473.06 511.58,477.07C511.72,496.08 511.42,515.09 511.79,534.11C507.69,534.11 503.59,534.04 499.49,534.23C499.51,516.15 499.44,498.06 499.55,479.98C499.54,477.01 498.89,473.44 496.03,471.9C490.8,469.23 484.13,469.05 479.02,472.11C476.08,473.96 475.47,477.71 475.44,480.92C475.45,498.67 475.41,516.42 475.5,534.17C471.49,534.11 467.48,534.04 463.47,534.22C463.62,514.44 463.54,494.66 463.54,474.89C463.28,468.83 467.56,463.32 473.12,461.24Z" style="fill:rgb(54,54,58);fill-rule:nonzero;"/>
        <path d="M188.94,464.06C189.15,462.72 188.38,460.82 189.64,459.87C193.89,459.99 198.15,460.48 202.38,459.79C202.63,484.51 202.67,509.24 202.52,533.96C198.08,534.17 193.64,534.1 189.2,534.15C188.69,510.79 189.47,487.42 188.94,464.06Z" style="fill:rgb(54,54,58);fill-rule:nonzero;"/>
        <path d="M393.17,459.8C397.58,460.14 402.02,460.4 406.42,459.79C406.36,484.58 406.42,509.38 406.4,534.17C401.99,534.08 397.59,534.09 393.19,534.15C392.7,519.11 393.21,504.07 393.07,489.03C393.22,479.28 392.78,469.53 393.17,459.8Z" style="fill:rgb(54,54,58);fill-rule:nonzero;"/>
        <path d="M56.72,563.85C60.14,562.7 64.12,560.17 67.59,562.51C70.7,564.05 73.38,568.49 70.17,571.32C67.8,570.92 65.45,569.47 63.21,571.21C47.39,579.64 32.6,590.88 22.41,605.8C31.83,606.22 41.06,603.88 50.14,601.7C52.68,600.71 54.57,603.05 56.6,604.15C56.27,604.13 55.62,604.08 55.3,604.05C55,605.97 54.71,607.9 54.46,609.84C52.7,609.54 50.78,608.6 49.09,609.69C43.28,612.64 38.35,617.08 34.01,621.89C33.97,624.95 31.92,627.2 30.2,629.51C39.81,626.53 47.21,619.37 54.5,612.79C56.02,611.33 58.33,612.15 59.28,613.82C60.61,615.87 58.35,617.85 57.21,619.4C50.57,626.4 42.7,632.38 33.68,635.98C35.17,635.89 38.16,635.72 39.65,635.63C35.66,638.33 30.82,640.9 25.85,640.15C22.75,638.44 20.39,635.41 19.14,632.13C18.04,629.3 19.5,626.37 21.2,624.15C24.21,620.17 27.19,616.13 30.77,612.63C25.95,612.91 19.58,612.83 17.02,607.95C14.03,602.73 17.25,596.75 20.46,592.49C30.14,580.35 42.71,570.52 56.72,563.85M27.98,638.44C30.58,637.79 33.18,637.12 35.66,636.11C32.84,635.87 30.31,637.02 27.98,638.44Z" style="fill:rgb(54,54,58);fill-rule:nonzero;"/>
        <path d="M345.42,563.67C348.95,562.34 353.47,560.04 356.74,563.17C359.78,564.85 360.88,568.83 358.35,571.46C356.36,570.81 354.16,569.65 352.15,570.89C341.58,576.19 331.74,583.02 323.26,591.27C318.36,595.44 314.37,600.5 310.75,605.78C316.88,606.36 322.94,605.03 328.94,603.92C333.27,603.14 337.46,601.22 341.95,601.64C342.3,602.18 343.01,603.24 343.36,603.77C343.29,605.8 343.21,607.84 343.13,609.89C341.08,609.57 338.83,608.61 336.89,609.84C331.62,612.81 326.88,616.73 322.87,621.26C321.79,624.45 320.29,627.43 317.97,629.91C327.69,626.56 335.4,619.6 342.84,612.79C345.38,609.89 349.45,614.53 347.27,617.19C340.51,625.28 331.81,631.97 321.98,635.9C323.36,635.86 326.11,635.8 327.48,635.76C323.76,638.45 319.21,640.65 314.51,640.22C309.43,637.93 305.37,631.55 308.14,626.09C311.21,621.21 315.08,616.89 319.04,612.72C314.14,612.94 307.94,612.71 305.2,607.9C302.9,602.9 305.01,597.08 308.31,593.05C318.19,580.58 330.97,570.36 345.42,563.67M316.4,637.91C316.43,638.04 316.5,638.29 316.54,638.42C318.91,637.67 321.34,637.05 323.67,636.15C321.09,636.05 318.73,636.99 316.4,637.91Z" style="fill:rgb(54,54,58);fill-rule:nonzero;"/>
        <path d="M87.84,573.68C88.18,573.64 88.84,573.57 89.18,573.53C89.77,576.38 90.48,579.21 91.44,581.97C102.24,580.28 113.2,579.85 124.11,579.49C126.68,579.09 129.07,580.58 129.66,583.16C116.6,583.48 103.66,585.7 90.77,587.69C89.03,599.85 86.24,612.02 87.01,624.39C91.04,618.77 93.52,612.2 95.8,605.73C96.77,603.64 99.2,602.4 101.27,603.83C101,607.53 100.31,611.2 100.53,614.93C103.42,608.91 107,603.26 110.66,597.69C111.28,597.45 112.53,596.96 113.15,596.71C113.71,596.96 114.83,597.45 115.39,597.7C114.91,603.74 116.03,609.92 114.53,615.87C110.69,613.88 110.13,609.69 110.11,605.83C104.53,612.69 101.24,621.14 98.6,629.49C97.37,629.84 96.13,630.15 94.87,630.41C93.94,627.72 93.19,624.95 93.26,622.08C91.94,625.41 90.9,629.42 87.48,631.21C85.41,631.72 82.67,631.63 81.63,629.42C78.63,624.84 79.7,619.19 79.43,614.04C78.12,615.65 75.58,617.05 76.26,619.48C77.87,625.25 79.1,631.77 76.35,637.4C74.15,641.99 69.41,645.98 64.1,645.59C59.67,644.99 58.13,639.72 59.11,635.93C59.93,629.76 63.62,624.66 66.35,619.25C64.14,613.21 60.55,607.15 61.74,600.48C61.92,598.54 63.47,597.26 64.8,596.05C65.87,596.96 66.84,598.04 68.09,598.72C70.34,598.98 72.57,598.34 74.79,598.07C73.42,600.16 71.81,602.07 70.39,604.13C71.01,607.56 72.78,610.65 73.95,613.91C76.47,611.24 80.44,609.16 80.63,605.06C81.04,599.8 82.24,594.67 82.94,589.45L84.21,589.53C84.31,591.16 84.41,592.81 84.61,594.44C84.65,592.43 84.59,590.43 84.55,588.43C77.51,589.55 70.62,591.51 63.57,592.52C63,591.97 61.88,590.88 61.31,590.33C62.72,588.8 64.55,587.79 66.58,587.37C72.78,585.85 78.97,584.29 85.27,583.24C85.88,579.99 86.85,576.83 87.84,573.68M63.35,641.46C69.9,638.24 69.73,629.51 68.57,623.34C65.36,628.78 62.62,634.99 63.35,641.46Z" style="fill:rgb(54,54,58);fill-rule:nonzero;"/>
        <path d="M154.37,583.14C155.25,579.59 155.92,575.86 158.15,572.87C158.93,575.94 159.74,579.01 160.75,582.02C172.77,580.31 184.96,579.36 197.11,579.73C197.62,580.88 198.14,582.05 198.66,583.21C188.96,583.1 179.42,584.9 169.85,586.19C166.52,586.49 163.2,586.89 159.95,587.69C158.27,600.06 155.29,612.44 156.29,625.01C159.62,619.07 162.76,612.97 164.73,606.44C166.01,602.82 168.64,598.51 172.96,598.54C175.18,598.57 178.37,597.93 179.58,600.38C181.02,606.03 176.97,611.56 172.53,614.65C169.66,616.12 171.18,619.88 172.1,622.19C175.67,623.43 178.38,619.86 180.77,617.78C184.31,614.81 184.51,609.73 187.72,606.51C191.19,602.65 195.59,598.91 200.99,598.53C204.63,598.43 207.03,601.46 208.18,604.57C205.38,604.28 202.39,602.23 199.67,603.72C197.03,606.12 196.6,609.9 194.84,612.86C194.26,613.19 193.09,613.85 192.5,614.18C192.47,614.26 192.41,614.42 192.38,614.5C196.77,614.25 198.43,609.67 202,607.85C203.44,606.87 204.66,608.82 205.06,609.96C206.78,619.36 204.79,629.02 206.65,638.41C206.18,630.63 206.03,622.75 207,615.01L208.46,613.63C208.15,625.8 209.51,638.32 205.43,650.04C203.22,656.13 198.28,660.62 193.68,664.95C191.74,666.77 188.11,666.68 186.66,664.29C183.8,660.52 184.14,655.4 185.11,651.04C187.43,643.39 190.54,636 193.94,628.78C194.61,628.71 195.95,628.55 196.61,628.48C196.65,624.74 196.77,621.01 196.68,617.28C194.52,618.59 192.51,620.32 190.03,620.99C188.08,621.64 186.42,620.22 184.83,619.36C181.31,623.17 177.52,627.51 172.02,628.13C167.56,628.2 164.48,624.44 162.75,620.74C161.37,624.37 160.49,628.77 156.97,631.02C154.76,632.05 151.54,631.33 150.5,628.96C148.35,624.83 148.72,620.06 148.58,615.57C145.79,618.28 143.39,622.71 138.92,622.43C136.99,621.81 135.54,620.31 134.02,619.04C131.47,623.33 128.68,629.24 122.97,629.53C118.35,630.04 116.68,624.72 116.07,621.11C114.29,614.46 116.48,607.13 121.21,602.23C123.46,599.85 126.73,598.58 129.98,598.55C134.89,597.96 138.68,602.03 143.55,601.92C142.76,606.97 141.44,611.95 141.02,617.06C144.41,613.45 149.88,610.47 149.9,604.92C150.17,599.7 151.3,594.59 152.33,589.49C152.98,591.31 153.3,593.24 153.62,595.15C153.49,592.9 153.34,590.65 153.35,588.4C146.43,589.54 139.69,591.69 132.72,592.48C131.77,591.66 130.81,590.85 129.84,590.05C137.33,585.82 146.14,585.12 154.37,583.14M174.73,601.47C172.82,604.63 171.41,608.13 171.33,611.88C173.66,608.59 175.82,605.14 177.16,601.32C176.56,601.36 175.34,601.43 174.73,601.47M124.58,623.24C128.49,617.92 131.91,612.26 135.59,606.79C134.27,605.07 132.73,603.54 131.02,602.22C123.92,606.45 123.44,615.92 124.58,623.24M191.1,647.16C189.91,651.11 191.4,655.09 192.32,658.92C193.16,657.59 194.18,656.34 194.67,654.84C196.74,646.27 196.84,637.36 196.39,628.6C193.67,634.45 192.68,640.94 191.1,647.16Z" style="fill:rgb(54,54,58);fill-rule:nonzero;"/>
        <path d="M604.89,576.75C606.01,574.78 608.58,574.79 610.49,574.2C610.92,582.89 608.86,591.43 608.87,600.09C608.77,608.16 608.18,616.24 608.74,624.3C611.58,620.67 613.22,616.36 615.21,612.26C617.11,608.22 617.8,603.39 621.23,600.24C623.72,597.57 627.65,598.83 630.86,598.49C633.51,600.89 633.13,604.77 631.35,607.59C629.56,611.01 626.76,613.78 623.67,616.05C624.1,618.33 623.29,623.12 626.97,622.45C631.56,620.71 634.64,616.42 637.79,612.81C640.46,610.03 637.84,606.19 638.19,602.92C638.42,600.56 638.85,597.68 640.96,596.25C642.35,596.98 643.62,597.94 645.06,598.63C647.08,598.82 649.11,598.36 651.13,598.25C649.87,600.34 648.36,602.26 646.58,603.94C648,606.96 649.17,610.09 650.21,613.26C654.12,612.12 655.85,607.55 660.06,607C659.74,611.8 655.24,614.48 652.43,617.87C653.74,623.11 655.48,628.6 654.07,634.01C653.04,640.3 647.42,645.54 640.99,645.73C637.67,645.45 635.57,642.12 636.02,638.97C635.34,631.9 639.31,625.71 642.97,620.05C642.39,618.02 641.83,615.99 641.26,613.97C636.9,619.76 632.57,626.94 624.77,628.2C620.19,628.2 616.58,624.25 615.9,619.88C613.65,623.82 612.34,628.84 608.12,631.19C606.15,631.79 604.57,629.97 603.67,628.49C601.43,624.59 601.25,619.99 600.25,615.71C597.75,617.76 595.83,620.55 592.94,622.1C589.99,623.12 587.42,621.16 585.62,619.06C583.36,621.76 582.03,625.17 579.48,627.63C577.25,628.96 574.42,630.09 571.83,629.24C568.94,628.04 568.44,624.68 567.61,622.06C564.94,624.58 562.22,627.7 558.39,628.28C554.76,628.12 552.39,624.47 552.3,621.08C552.19,616.25 551.55,610.73 554.6,606.61C556.13,606.07 557.74,605.85 559.33,605.54C560.05,606.56 560.77,607.59 561.49,608.64C561.13,613.31 560.88,617.99 560.86,622.68C565.44,620.92 566.3,615.2 567.59,611.03C569,604.74 574.12,598.73 580.89,598.43C585.87,597.88 589.84,601.7 594.7,602.05C594.26,607.08 592.31,611.96 592.74,617.05C595.16,614.45 598.1,612.1 599.78,608.95C600.37,601.94 600,594.87 600.49,587.86C601.41,583.97 603.05,580.27 604.89,576.75M627.49,601.46C625.77,604.52 624.16,607.76 624,611.33C626.66,608.55 628.57,605.17 629.74,601.52C629.17,601.5 628.05,601.48 627.49,601.46M580.4,603.56C575.43,608.48 574.3,616.44 576.2,622.97C579.67,617.65 583.49,612.51 586.48,606.91C585.89,604.53 582.72,601.17 580.4,603.56M644.35,625.2C641.39,630 639.81,635.66 640.22,641.32C644.9,639.26 645.84,633.43 646.01,628.89C645.58,627.71 646.16,625.12 644.35,625.2Z" style="fill:rgb(54,54,58);fill-rule:nonzero;"/>
        <path d="M401.25,615.12C404.25,607.91 403.09,599.43 407.24,592.63C407.94,594.81 408.48,597.05 408.76,599.33C409.07,597.23 409.47,595.13 409.97,593.08C410.85,594.2 412.88,595.22 412.12,597C411.49,600.62 410.9,604.28 411.13,607.98C413.69,604.7 416,600.79 420.09,599.23C422.97,598.08 427.03,598.35 428.83,601.21C430.61,603.69 430.37,606.86 430.65,609.75C432.41,609.3 434.17,608.83 435.93,608.34C436.45,606.69 437.04,605.07 437.66,603.47C439.24,603.41 440.81,603.39 442.4,603.41C442.16,607.33 441.15,611.19 441.28,615.15C444.27,608.98 447.7,603.02 451.72,597.46C453.06,597.3 454.4,597.16 455.76,597.03C455.84,603.29 456.79,609.62 455.52,615.82C454.23,614.67 452.74,613.67 451.89,612.15C451.34,609.83 451.42,607.41 451.17,605.07C446.57,612.03 442.04,619.37 440.3,627.63C439.93,630.04 437.27,629.94 435.41,630.15C433.65,624.14 434.17,617.88 435.19,611.8C433.1,612.27 430.45,612.23 429.22,614.33C426.87,617.45 424.65,621.19 420.67,622.38C418.39,623.05 414.96,624.84 413.44,621.99C412.73,619.88 413.83,617.65 415.05,615.96C417.33,612.89 421.26,612.11 424.42,610.3C426.64,607.6 425.46,603.82 424.14,600.99C419.77,603.33 417.29,607.78 415.11,612.04C412.71,617.17 410.73,622.53 409.63,628.1C408.52,635.61 409.53,643.2 409.5,650.75C408.91,650.22 407.74,649.17 407.15,648.65C406.03,648.99 404.92,649.33 403.8,649.68C401.77,640.19 401.8,630.48 401.8,620.82C400.07,622.88 398.41,626.24 395.18,625.61C391.27,624.77 390.25,620.2 389.6,616.85C388.38,612.59 389.33,607.88 387.24,603.87C383.46,608.49 380.9,613.9 377.84,618.98C376.61,621.06 373.13,623.16 371.26,620.65C370.21,617.83 370.01,614.76 369.17,611.88C365.47,616.42 363.8,622.19 361.21,627.38C358.31,629.07 354.9,627.65 352.77,625.4C350.61,621.66 351.03,617.15 350.93,613.01C350.79,608.09 351.83,603.28 352.73,598.48C355.74,597.22 360.06,596.69 362.25,599.58C362.11,604.79 361,609.98 361.67,615.22C363.68,612.37 365.25,609.15 367.81,606.74C368.82,605.68 370.45,606.14 371.69,606.46C373.62,609 373.96,612.31 375.08,615.23C378.6,610.7 381.06,605.27 385.38,601.42C387.29,599.57 390.03,599.82 392.45,600.2C394.56,606.33 393.52,613.21 396.56,619.01C398.33,618.02 400.46,617.17 401.25,615.12M418.21,619.83C420.24,618.41 421.8,616.46 422.86,614.23C420.47,615.29 418.9,617.33 418.21,619.83Z" style="fill:rgb(54,54,58);fill-rule:nonzero;"/>
        <path d="M214.5,599.48C214.07,597.89 213.71,594.45 216.17,594.71C217.96,594.27 219.25,595.64 220.49,596.67C220.23,597.43 219.71,598.96 219.46,599.73C217.8,599.76 215.97,600.56 214.5,599.48Z" style="fill:rgb(54,54,58);fill-rule:nonzero;"/>
        <path d="M555.62,595.7C557,594.61 558.82,594.72 560.48,594.54C560.83,596.44 560.82,598.39 560.56,600.31C558.79,600.13 557.04,599.94 555.3,599.71C555.36,598.37 555.3,597.01 555.62,595.7Z" style="fill:rgb(54,54,58);fill-rule:nonzero;"/>
        <path d="M258.42,609.33C258.04,604.76 257.14,599.48 260.81,595.94C263.02,598.36 266.08,599.33 269.3,598.54C269.74,597.71 270.19,596.89 270.63,596.07C270.64,599.3 269.09,602.14 266.59,604.12C267.82,607.41 269.14,610.68 270.6,613.88C273.6,611.47 275.99,606.87 280.45,607.61C278.85,611.85 275.14,614.51 272.48,617.99C273.71,624.21 275.88,630.92 273.13,637.1C270.77,641.55 266.37,645.67 261.06,645.66C257.92,645.57 255.99,642.66 255.46,639.86C255.12,633.52 257.97,627.59 261.36,622.42C263.79,619.49 261.43,616.01 260.58,612.98C257.81,616.03 255.73,620 251.94,621.92C248.9,623.37 246.14,620.96 243.89,619.22C241.16,623.13 239.39,628.82 233.85,629.37C228.93,630.83 226.39,625.12 226.05,621.18C224.32,623.92 222.25,626.83 218.97,627.77C216.24,628.95 212.6,627.54 211.77,624.58C210.06,618.75 210.69,612.38 212.64,606.69C214.63,606.24 216.63,605.84 218.65,605.47C219.43,606.88 220.61,608.29 220.26,610.04C219.98,614.24 218.98,618.38 219.26,622.61C219.74,622.54 220.71,622.4 221.19,622.33C223.3,619.11 225.28,615.73 226.1,611.93C226.86,608.28 228.36,604.7 231.13,602.12C235.13,598.01 241.92,597.42 246.84,600.14C248.83,601.32 251.14,601.63 253.39,601.97C252.73,606.96 251.53,611.86 250.78,616.85C253.61,614.65 256.11,612.07 258.42,609.33M234.39,623.36C238.56,618.1 241.79,612.19 245.56,606.65C244.2,605.03 242.71,603.52 241.06,602.19C233.94,606.54 233.14,615.9 234.39,623.36M259.85,641.5C266.46,638.3 266.1,629.78 265.24,623.61C261.65,628.75 259.28,635.18 259.85,641.5Z" style="fill:rgb(54,54,58);fill-rule:nonzero;"/>
        <path d="M481.39,610.3C479.83,605.85 478.57,599.17 483.33,596.26C485.32,599.02 488.58,599.1 491.65,598.41C491.79,597.55 491.95,596.69 492.11,595.85C493.22,599.28 491.15,601.94 488.58,603.9C489.79,607.27 491.08,610.62 492.57,613.88C495.04,611.54 497.64,609.23 499.26,606.19C501.33,602.48 504.66,599.14 509.07,598.65C514.65,597.31 519.21,601.54 524.52,602.32C523.8,607.24 522.2,612.03 522.07,617.04C524.24,614.91 526.41,612.77 528.55,610.61C530.6,608.67 531.05,605.71 532.8,603.57C533.79,603.49 535.76,603.34 536.74,603.26C536.91,607.26 536.16,611.2 535.61,615.14C538.93,609.91 541.51,604.21 545.21,599.21C546.19,597.69 547.98,597.11 549.47,596.27C550.81,598.63 550.46,601.39 550.5,603.99C550.43,608 550.8,612.03 550.25,616.03C546.46,613.72 545.52,609.38 545.53,605.23C541.09,612.33 536.51,619.67 534.92,628.02C534.48,630.45 531.53,629.65 529.78,629.96C529.2,625.33 528.48,620.65 529.33,616.01C527.15,618.31 525.13,621.1 522.05,622.21C519.21,622.99 516.96,620.78 515,619.11C512.37,623.19 510.01,628.78 504.52,629.38C501.78,630.28 499.45,628.07 498.32,625.82C496.89,622.62 496.77,619.06 496.13,615.67C493.04,618.14 495.77,621.72 496.11,624.8C496.72,629.8 496.75,635.36 493.6,639.6C490.86,643.18 486.41,646.46 481.67,645.39C478.78,644.82 477.73,641.6 477.45,639.04C477.39,632.65 480.45,626.82 483.77,621.56C485.71,619.14 483.77,616.43 482.61,614.18C478.91,620.59 473.62,626.97 465.95,628.41C462.68,627.32 459.2,625.58 458.29,621.94C456.63,614.92 457.63,606.81 462.27,601.08C464.85,597.83 469.38,598.13 473.01,598.95C474.65,600.54 474.92,603.09 474.21,605.19C472.84,609.81 469.21,613.3 465.33,615.95C465.63,618.28 466.08,620.59 466.65,622.89C473.48,621.82 477.4,615.28 481.39,610.3M466.11,611.12C468.56,608.17 470.63,604.87 471.51,601.1C467.27,601.98 466.42,607.5 466.11,611.12M505.87,623.26C509.21,617.57 513.18,612.3 516.46,606.57C515.13,604.96 513.65,603.49 512.05,602.15C505.04,606.46 504.11,615.94 505.87,623.26M481.72,641.37C488.46,638.4 488.22,629.73 487.16,623.6C483.5,628.7 481.51,635.09 481.72,641.37Z" style="fill:rgb(54,54,58);fill-rule:nonzero;"/>
    </g>
    <g id="_-176e75ff" serif:id="#176e75ff">
        <path d="M347.07,79.71C395.04,79.42 443.01,79.7 490.99,79.57C494.28,79.64 497.63,79.26 500.89,79.93C539.96,121.85 561.42,179.73 558.68,237.02C557.18,257.34 551.62,277.16 543.93,295.96C535.03,317.86 523.35,338.55 510.1,358.08C512.2,353.56 514.56,349.16 516.62,344.61C524.03,327.46 526.67,308.53 525.92,289.95C525.06,271.16 519.03,252.74 509.21,236.75C498.4,218.88 483.62,203.57 466.84,191.21C444.62,174.59 419.3,162.51 393.11,153.56C367.26,144.75 340.36,139.37 313.27,136.19C324.56,117.37 335.96,98.63 347.07,79.71Z" style="fill:rgb(23,110,117);fill-rule:nonzero;"/>
        <path d="M521.6,463.67C528.12,458.36 537.06,458.4 545.03,458.86C551.85,459.17 559.27,462.07 562.51,468.47C564.7,472.97 564.28,478.16 564.17,483.02C564.15,490.46 558.26,497.43 550.91,498.61C545.42,499.42 539.8,498.41 534.34,499.5C530.41,500.81 527.82,504.89 527.97,508.99C527.88,513.38 527.36,518.85 531.03,522.04C535.73,525 541.98,524.91 547.09,523.13C550.7,521.89 551.59,517.89 552.36,514.62C556.33,514.6 560.3,514.59 564.27,514.63C564.28,519.22 564,524.23 560.83,527.88C555.81,533.89 547.41,535.19 540.01,535.23C532.86,535.11 524.84,533.81 519.83,528.19C517.2,525.51 516.04,521.73 516.17,518.03C516.09,504 516.15,489.97 516.17,475.95C516.06,471.34 517.73,466.43 521.6,463.67M528.44,475.59C527.51,480.71 527.97,485.96 528.18,491.13C533.63,486.99 540.79,489.65 546.9,487.93C552.44,485.99 553.14,478.7 551.08,474C548.71,469.82 543.26,469.2 538.94,469.45C534.85,469.71 529.63,471.09 528.44,475.59Z" style="fill:rgb(23,110,117);fill-rule:nonzero;"/>
        <path d="M570.17,466.14C574.14,460.98 580.85,459.1 587.09,458.79C595.18,458.36 604.26,458.85 610.56,464.62C614.9,468.19 615.11,474.27 615.14,479.44C611.13,479.45 607.12,479.44 603.11,479.38C602.51,476.34 601.93,472.7 598.98,471.01C594.48,468.77 589.05,468.96 584.36,470.49C577.04,472.85 577.12,485.21 584.21,487.87C590.96,490.61 597.96,492.71 604.81,495.21C608.44,496.54 611.42,499.33 613.17,502.76C615.56,507.46 614.85,512.93 614.95,518.02C615.08,522.46 613.54,527.13 609.88,529.87C603.19,535.16 594.17,535.59 586.01,534.98C579.78,534.33 572.95,532.18 569.4,526.62C566.8,522.84 566.86,518.1 566.78,513.71C570.74,513.69 574.71,513.69 578.67,513.63C579.41,517.13 579.88,521.78 583.81,523.19C588.87,524.79 594.81,524.95 599.64,522.54C604.54,517.97 604.31,508.11 597.7,505.17C591.04,502.28 584.02,500.31 577.25,497.71C571.65,495.45 567.23,490.11 566.93,483.96C566.64,477.93 566.25,471.18 570.17,466.14Z" style="fill:rgb(23,110,117);fill-rule:nonzero;"/>
    </g>
</svg>
